<?xml version="1.0" encoding="utf-8" standalone="no"?>
<!DOCTYPE svg PUBLIC "-//W3C//DTD SVG 1.1//EN"
  "http://www.w3.org/Graphics/SVG/1.1/DTD/svg11.dtd">
<svg xmlns:xlink="http://www.w3.org/1999/xlink" width="720pt" height="405pt" viewBox="0 0 720 405" xmlns="http://www.w3.org/2000/svg" version="1.1">
 <metadata>
  <rdf:RDF xmlns:dc="http://purl.org/dc/elements/1.1/" xmlns:cc="http://creativecommons.org/ns#" xmlns:rdf="http://www.w3.org/1999/02/22-rdf-syntax-ns#">
   <cc:Work>
    <dc:type rdf:resource="http://purl.org/dc/dcmitype/StillImage"/>
    <dc:date>2023-10-31T16:42:10.869458</dc:date>
    <dc:format>image/svg+xml</dc:format>
    <dc:creator>
     <cc:Agent>
      <dc:title>Matplotlib v3.7.2, https://matplotlib.org/</dc:title>
     </cc:Agent>
    </dc:creator>
   </cc:Work>
  </rdf:RDF>
 </metadata>
 <defs>
  <style type="text/css">*{stroke-linejoin: round; stroke-linecap: butt}</style>
 </defs>
 <g id="figure_1">
  <g id="patch_1">
   <path d="M 0 405 
L 720 405 
L 720 0 
L 0 0 
z
" style="fill: #ffffff"/>
  </g>
  <g id="axes_1">
   <g id="patch_2">
    <path d="M 90 354.375 
L 648 354.375 
L 648 48.6 
L 90 48.6 
z
" style="fill: #ffffff"/>
   </g>
   <g id="matplotlib.axis_1">
    <g id="xtick_1">
     <g id="line2d_1">
      <defs>
       <path id="mf71fa42fb5" d="M 0 0 
L 0 3.5 
" style="stroke: #000000; stroke-width: 0.8"/>
      </defs>
      <g>
       <use xlink:href="#mf71fa42fb5" x="90" y="354.375" style="stroke: #000000; stroke-width: 0.8"/>
      </g>
     </g>
     <g id="text_1">
      <!-- 0 -->
      <g transform="translate(85.997969 372.012812) scale(0.14 -0.14)">
       <defs>
        <path id="OpenSans-Regular-30" d="M 3334 2291 
Q 3334 1734 3250 1296 
Q 3166 859 2984 556 
Q 2803 253 2515 95 
Q 2228 -63 1825 -63 
Q 1316 -63 983 215 
Q 650 494 486 1020 
Q 322 1547 322 2291 
Q 322 3022 470 3548 
Q 619 4075 950 4358 
Q 1281 4641 1825 4641 
Q 2341 4641 2675 4361 
Q 3009 4081 3171 3554 
Q 3334 3028 3334 2291 
z
M 844 2291 
Q 844 1653 941 1228 
Q 1038 803 1255 592 
Q 1472 381 1825 381 
Q 2178 381 2395 590 
Q 2613 800 2711 1225 
Q 2809 1650 2809 2291 
Q 2809 2919 2712 3342 
Q 2616 3766 2400 3980 
Q 2184 4194 1825 4194 
Q 1466 4194 1250 3980 
Q 1034 3766 939 3342 
Q 844 2919 844 2291 
z
" transform="scale(0.015625)"/>
       </defs>
       <use xlink:href="#OpenSans-Regular-30"/>
      </g>
     </g>
    </g>
    <g id="xtick_2">
     <g id="line2d_2">
      <g>
       <use xlink:href="#mf71fa42fb5" x="201.6" y="354.375" style="stroke: #000000; stroke-width: 0.8"/>
      </g>
     </g>
     <g id="text_2">
      <!-- 10 -->
      <g transform="translate(193.595937 372.012812) scale(0.14 -0.14)">
       <defs>
        <path id="OpenSans-Regular-31" d="M 2247 0 
L 1741 0 
L 1741 3238 
Q 1741 3422 1742 3555 
Q 1744 3688 1748 3798 
Q 1753 3909 1763 4025 
Q 1666 3925 1581 3854 
Q 1497 3784 1372 3681 
L 850 3263 
L 578 3616 
L 1816 4569 
L 2247 4569 
L 2247 0 
z
" transform="scale(0.015625)"/>
       </defs>
       <use xlink:href="#OpenSans-Regular-31"/>
       <use xlink:href="#OpenSans-Regular-30" x="57.177734"/>
      </g>
     </g>
    </g>
    <g id="xtick_3">
     <g id="line2d_3">
      <g>
       <use xlink:href="#mf71fa42fb5" x="313.2" y="354.375" style="stroke: #000000; stroke-width: 0.8"/>
      </g>
     </g>
     <g id="text_3">
      <!-- 20 -->
      <g transform="translate(305.195938 372.012812) scale(0.14 -0.14)">
       <defs>
        <path id="OpenSans-Regular-32" d="M 3309 0 
L 316 0 
L 316 434 
L 1538 1675 
Q 1878 2019 2111 2287 
Q 2344 2556 2466 2817 
Q 2588 3078 2588 3391 
Q 2588 3778 2358 3983 
Q 2128 4188 1753 4188 
Q 1425 4188 1172 4075 
Q 919 3963 653 3756 
L 375 4106 
Q 556 4259 770 4378 
Q 984 4497 1229 4565 
Q 1475 4634 1753 4634 
Q 2175 4634 2481 4487 
Q 2788 4341 2955 4069 
Q 3122 3797 3122 3422 
Q 3122 3059 2978 2748 
Q 2834 2438 2575 2133 
Q 2316 1828 1969 1488 
L 975 497 
L 975 475 
L 3309 475 
L 3309 0 
z
" transform="scale(0.015625)"/>
       </defs>
       <use xlink:href="#OpenSans-Regular-32"/>
       <use xlink:href="#OpenSans-Regular-30" x="57.177734"/>
      </g>
     </g>
    </g>
    <g id="xtick_4">
     <g id="line2d_4">
      <g>
       <use xlink:href="#mf71fa42fb5" x="424.8" y="354.375" style="stroke: #000000; stroke-width: 0.8"/>
      </g>
     </g>
     <g id="text_4">
      <!-- 30 -->
      <g transform="translate(416.795938 372.012812) scale(0.14 -0.14)">
       <defs>
        <path id="OpenSans-Regular-33" d="M 3141 3503 
Q 3141 3197 3022 2972 
Q 2903 2747 2690 2605 
Q 2478 2463 2191 2406 
L 2191 2381 
Q 2734 2313 3007 2031 
Q 3281 1750 3281 1294 
Q 3281 897 3095 590 
Q 2909 284 2526 110 
Q 2144 -63 1547 -63 
Q 1184 -63 876 -5 
Q 569 53 288 188 
L 288 675 
Q 572 534 906 454 
Q 1241 375 1553 375 
Q 2178 375 2456 623 
Q 2734 872 2734 1303 
Q 2734 1600 2579 1783 
Q 2425 1966 2136 2052 
Q 1847 2138 1441 2138 
L 984 2138 
L 984 2581 
L 1444 2581 
Q 1816 2581 2075 2690 
Q 2334 2800 2470 2998 
Q 2606 3197 2606 3469 
Q 2606 3816 2375 4005 
Q 2144 4194 1747 4194 
Q 1503 4194 1303 4144 
Q 1103 4094 928 4006 
Q 753 3919 578 3803 
L 316 4159 
Q 566 4353 925 4493 
Q 1284 4634 1741 4634 
Q 2441 4634 2791 4315 
Q 3141 3997 3141 3503 
z
" transform="scale(0.015625)"/>
       </defs>
       <use xlink:href="#OpenSans-Regular-33"/>
       <use xlink:href="#OpenSans-Regular-30" x="57.177734"/>
      </g>
     </g>
    </g>
    <g id="xtick_5">
     <g id="line2d_5">
      <g>
       <use xlink:href="#mf71fa42fb5" x="536.4" y="354.375" style="stroke: #000000; stroke-width: 0.8"/>
      </g>
     </g>
     <g id="text_5">
      <!-- 40 -->
      <g transform="translate(528.395937 372.012812) scale(0.14 -0.14)">
       <defs>
        <path id="OpenSans-Regular-34" d="M 3538 1059 
L 2853 1059 
L 2853 0 
L 2347 0 
L 2347 1059 
L 138 1059 
L 138 1497 
L 2313 4594 
L 2853 4594 
L 2853 1528 
L 3538 1528 
L 3538 1059 
z
M 2347 1528 
L 2347 3022 
Q 2347 3194 2350 3333 
Q 2353 3472 2359 3592 
Q 2366 3713 2370 3822 
Q 2375 3931 2378 4038 
L 2353 4038 
Q 2294 3913 2217 3773 
Q 2141 3634 2063 3525 
L 653 1528 
L 2347 1528 
z
" transform="scale(0.015625)"/>
       </defs>
       <use xlink:href="#OpenSans-Regular-34"/>
       <use xlink:href="#OpenSans-Regular-30" x="57.177734"/>
      </g>
     </g>
    </g>
    <g id="xtick_6">
     <g id="line2d_6">
      <g>
       <use xlink:href="#mf71fa42fb5" x="648" y="354.375" style="stroke: #000000; stroke-width: 0.8"/>
      </g>
     </g>
     <g id="text_6">
      <!-- 50 -->
      <g transform="translate(639.995937 372.012812) scale(0.14 -0.14)">
       <defs>
        <path id="OpenSans-Regular-35" d="M 1759 2794 
Q 2225 2794 2569 2636 
Q 2913 2478 3102 2178 
Q 3291 1878 3291 1450 
Q 3291 981 3087 642 
Q 2884 303 2503 120 
Q 2122 -63 1591 -63 
Q 1234 -63 928 0 
Q 622 63 413 188 
L 413 681 
Q 641 544 966 462 
Q 1291 381 1597 381 
Q 1944 381 2205 492 
Q 2466 603 2611 829 
Q 2756 1056 2756 1400 
Q 2756 1856 2476 2104 
Q 2197 2353 1594 2353 
Q 1400 2353 1169 2322 
Q 938 2291 788 2253 
L 525 2425 
L 700 4569 
L 2972 4569 
L 2972 4094 
L 1144 4094 
L 1028 2716 
Q 1147 2741 1334 2767 
Q 1522 2794 1759 2794 
z
" transform="scale(0.015625)"/>
       </defs>
       <use xlink:href="#OpenSans-Regular-35"/>
       <use xlink:href="#OpenSans-Regular-30" x="57.177734"/>
      </g>
     </g>
    </g>
    <g id="text_7">
     <!-- Wind speed, m/s -->
     <g transform="translate(314.596875 389.999687) scale(0.14 -0.14)">
      <defs>
       <path id="OpenSans-Regular-57" d="M 5816 4569 
L 4594 0 
L 4059 0 
L 3153 3075 
Q 3113 3206 3077 3339 
Q 3041 3472 3009 3592 
Q 2978 3713 2958 3805 
Q 2938 3897 2928 3944 
Q 2922 3897 2905 3806 
Q 2888 3716 2861 3597 
Q 2834 3478 2798 3343 
Q 2763 3209 2722 3072 
L 1841 0 
L 1306 0 
L 94 4569 
L 647 4569 
L 1381 1703 
Q 1419 1559 1451 1420 
Q 1484 1281 1511 1150 
Q 1538 1019 1559 894 
Q 1581 769 1600 650 
Q 1616 772 1641 905 
Q 1666 1038 1695 1175 
Q 1725 1313 1761 1453 
Q 1797 1594 1838 1734 
L 2659 4569 
L 3206 4569 
L 4063 1713 
Q 4106 1566 4143 1422 
Q 4181 1278 4211 1142 
Q 4241 1006 4264 882 
Q 4288 759 4306 650 
Q 4328 803 4359 972 
Q 4391 1141 4433 1325 
Q 4475 1509 4525 1706 
L 5259 4569 
L 5816 4569 
z
" transform="scale(0.015625)"/>
       <path id="OpenSans-Regular-69" d="M 1066 3425 
L 1066 0 
L 547 0 
L 547 3425 
L 1066 3425 
z
M 813 4706 
Q 941 4706 1033 4623 
Q 1125 4541 1125 4366 
Q 1125 4194 1033 4109 
Q 941 4025 813 4025 
Q 678 4025 589 4109 
Q 500 4194 500 4366 
Q 500 4541 589 4623 
Q 678 4706 813 4706 
z
" transform="scale(0.015625)"/>
       <path id="OpenSans-Regular-6e" d="M 2169 3488 
Q 2778 3488 3090 3189 
Q 3403 2891 3403 2231 
L 3403 0 
L 2891 0 
L 2891 2197 
Q 2891 2625 2695 2837 
Q 2500 3050 2097 3050 
Q 1528 3050 1297 2728 
Q 1066 2406 1066 1794 
L 1066 0 
L 547 0 
L 547 3425 
L 966 3425 
L 1044 2931 
L 1072 2931 
Q 1181 3113 1350 3236 
Q 1519 3359 1728 3423 
Q 1938 3488 2169 3488 
z
" transform="scale(0.015625)"/>
       <path id="OpenSans-Regular-64" d="M 1766 -63 
Q 1116 -63 736 381 
Q 356 825 356 1700 
Q 356 2584 743 3036 
Q 1131 3488 1775 3488 
Q 2047 3488 2250 3416 
Q 2453 3344 2600 3223 
Q 2747 3103 2847 2950 
L 2884 2950 
Q 2872 3047 2859 3215 
Q 2847 3384 2847 3491 
L 2847 4863 
L 3366 4863 
L 3366 0 
L 2947 0 
L 2869 488 
L 2847 488 
Q 2750 334 2601 209 
Q 2453 84 2248 10 
Q 2044 -63 1766 -63 
z
M 1847 369 
Q 2397 369 2625 681 
Q 2853 994 2853 1609 
L 2853 1703 
Q 2853 2356 2636 2706 
Q 2419 3056 1847 3056 
Q 1369 3056 1131 2689 
Q 894 2322 894 1688 
Q 894 1056 1130 712 
Q 1366 369 1847 369 
z
" transform="scale(0.015625)"/>
       <path id="OpenSans-Regular-20" transform="scale(0.015625)"/>
       <path id="OpenSans-Regular-73" d="M 2763 938 
Q 2763 609 2598 386 
Q 2434 163 2129 50 
Q 1825 -63 1403 -63 
Q 1044 -63 781 -6 
Q 519 50 322 153 
L 322 631 
Q 531 528 822 443 
Q 1113 359 1416 359 
Q 1859 359 2059 503 
Q 2259 647 2259 894 
Q 2259 1034 2179 1142 
Q 2100 1250 1912 1351 
Q 1725 1453 1394 1575 
Q 1066 1700 827 1823 
Q 588 1947 458 2125 
Q 328 2303 328 2588 
Q 328 3022 679 3255 
Q 1031 3488 1603 3488 
Q 1913 3488 2183 3427 
Q 2453 3366 2688 3263 
L 2513 2847 
Q 2300 2938 2059 3000 
Q 1819 3063 1569 3063 
Q 1209 3063 1017 2944 
Q 825 2825 825 2619 
Q 825 2459 914 2356 
Q 1003 2253 1200 2162 
Q 1397 2072 1719 1950 
Q 2041 1831 2275 1704 
Q 2509 1578 2636 1398 
Q 2763 1219 2763 938 
z
" transform="scale(0.015625)"/>
       <path id="OpenSans-Regular-70" d="M 2156 3488 
Q 2797 3488 3178 3047 
Q 3559 2606 3559 1722 
Q 3559 1138 3384 741 
Q 3209 344 2892 140 
Q 2575 -63 2144 -63 
Q 1872 -63 1665 9 
Q 1459 81 1312 203 
Q 1166 325 1069 469 
L 1031 469 
Q 1041 347 1055 175 
Q 1069 3 1069 -125 
L 1069 -1531 
L 547 -1531 
L 547 3425 
L 975 3425 
L 1044 2919 
L 1069 2919 
Q 1169 3075 1312 3204 
Q 1456 3334 1664 3411 
Q 1872 3488 2156 3488 
z
M 2066 3050 
Q 1709 3050 1492 2912 
Q 1275 2775 1175 2501 
Q 1075 2228 1069 1816 
L 1069 1716 
Q 1069 1281 1164 981 
Q 1259 681 1479 525 
Q 1700 369 2072 369 
Q 2391 369 2603 541 
Q 2816 713 2920 1020 
Q 3025 1328 3025 1728 
Q 3025 2334 2789 2692 
Q 2553 3050 2066 3050 
z
" transform="scale(0.015625)"/>
       <path id="OpenSans-Regular-65" d="M 1866 3488 
Q 2303 3488 2615 3294 
Q 2928 3100 3093 2751 
Q 3259 2403 3259 1938 
L 3259 1616 
L 894 1616 
Q 903 1013 1193 697 
Q 1484 381 2013 381 
Q 2338 381 2588 440 
Q 2838 500 3106 616 
L 3106 159 
Q 2847 44 2592 -9 
Q 2338 -63 1991 -63 
Q 1497 -63 1130 139 
Q 763 341 559 731 
Q 356 1122 356 1688 
Q 356 2241 542 2645 
Q 728 3050 1067 3269 
Q 1406 3488 1866 3488 
z
M 1859 3063 
Q 1444 3063 1197 2791 
Q 950 2519 903 2031 
L 2716 2031 
Q 2713 2338 2620 2570 
Q 2528 2803 2340 2933 
Q 2153 3063 1859 3063 
z
" transform="scale(0.015625)"/>
       <path id="OpenSans-Regular-2c" d="M 1141 744 
L 1181 672 
Q 1125 444 1039 184 
Q 953 -75 851 -336 
Q 750 -597 647 -825 
L 259 -825 
Q 325 -575 387 -298 
Q 450 -22 501 248 
Q 553 519 584 744 
L 1141 744 
z
" transform="scale(0.015625)"/>
       <path id="OpenSans-Regular-6d" d="M 4266 3488 
Q 4831 3488 5118 3192 
Q 5406 2897 5406 2244 
L 5406 0 
L 4894 0 
L 4894 2219 
Q 4894 2634 4714 2842 
Q 4534 3050 4181 3050 
Q 3684 3050 3459 2762 
Q 3234 2475 3234 1916 
L 3234 0 
L 2719 0 
L 2719 2219 
Q 2719 2497 2639 2681 
Q 2559 2866 2401 2958 
Q 2244 3050 2003 3050 
Q 1663 3050 1456 2909 
Q 1250 2769 1158 2492 
Q 1066 2216 1066 1813 
L 1066 0 
L 547 0 
L 547 3425 
L 966 3425 
L 1044 2941 
L 1072 2941 
Q 1175 3119 1331 3241 
Q 1488 3363 1681 3425 
Q 1875 3488 2094 3488 
Q 2484 3488 2748 3342 
Q 3013 3197 3131 2900 
L 3159 2900 
Q 3328 3197 3622 3342 
Q 3916 3488 4266 3488 
z
" transform="scale(0.015625)"/>
       <path id="OpenSans-Regular-2f" d="M 2278 4569 
L 578 0 
L 66 0 
L 1769 4569 
L 2278 4569 
z
" transform="scale(0.015625)"/>
      </defs>
      <use xlink:href="#OpenSans-Regular-57"/>
      <use xlink:href="#OpenSans-Regular-69" x="92.333984"/>
      <use xlink:href="#OpenSans-Regular-6e" x="117.578125"/>
      <use xlink:href="#OpenSans-Regular-64" x="178.90625"/>
      <use xlink:href="#OpenSans-Regular-20" x="240.087891"/>
      <use xlink:href="#OpenSans-Regular-73" x="266.064453"/>
      <use xlink:href="#OpenSans-Regular-70" x="313.720703"/>
      <use xlink:href="#OpenSans-Regular-65" x="374.902344"/>
      <use xlink:href="#OpenSans-Regular-65" x="431.054688"/>
      <use xlink:href="#OpenSans-Regular-64" x="487.207031"/>
      <use xlink:href="#OpenSans-Regular-2c" x="548.388672"/>
      <use xlink:href="#OpenSans-Regular-20" x="574.267578"/>
      <use xlink:href="#OpenSans-Regular-6d" x="600.244141"/>
      <use xlink:href="#OpenSans-Regular-2f" x="692.822266"/>
      <use xlink:href="#OpenSans-Regular-73" x="729.492188"/>
     </g>
    </g>
   </g>
   <g id="matplotlib.axis_2">
    <g id="ytick_1">
     <g id="line2d_7">
      <defs>
       <path id="m0445782f90" d="M 0 0 
L -3.5 0 
" style="stroke: #000000; stroke-width: 0.8"/>
      </defs>
      <g>
       <use xlink:href="#m0445782f90" x="90" y="354.375" style="stroke: #000000; stroke-width: 0.8"/>
      </g>
     </g>
     <g id="text_8">
      <!-- 0 -->
      <g transform="translate(74.995937 359.693906) scale(0.14 -0.14)">
       <use xlink:href="#OpenSans-Regular-30"/>
      </g>
     </g>
    </g>
    <g id="ytick_2">
     <g id="line2d_8">
      <g>
       <use xlink:href="#m0445782f90" x="90" y="316.153125" style="stroke: #000000; stroke-width: 0.8"/>
      </g>
     </g>
     <g id="text_9">
      <!-- 10 -->
      <g transform="translate(66.991875 321.472031) scale(0.14 -0.14)">
       <use xlink:href="#OpenSans-Regular-31"/>
       <use xlink:href="#OpenSans-Regular-30" x="57.177734"/>
      </g>
     </g>
    </g>
    <g id="ytick_3">
     <g id="line2d_9">
      <g>
       <use xlink:href="#m0445782f90" x="90" y="277.93125" style="stroke: #000000; stroke-width: 0.8"/>
      </g>
     </g>
     <g id="text_10">
      <!-- 20 -->
      <g transform="translate(66.991875 283.250156) scale(0.14 -0.14)">
       <use xlink:href="#OpenSans-Regular-32"/>
       <use xlink:href="#OpenSans-Regular-30" x="57.177734"/>
      </g>
     </g>
    </g>
    <g id="ytick_4">
     <g id="line2d_10">
      <g>
       <use xlink:href="#m0445782f90" x="90" y="239.709375" style="stroke: #000000; stroke-width: 0.8"/>
      </g>
     </g>
     <g id="text_11">
      <!-- 30 -->
      <g transform="translate(66.991875 245.028281) scale(0.14 -0.14)">
       <use xlink:href="#OpenSans-Regular-33"/>
       <use xlink:href="#OpenSans-Regular-30" x="57.177734"/>
      </g>
     </g>
    </g>
    <g id="ytick_5">
     <g id="line2d_11">
      <g>
       <use xlink:href="#m0445782f90" x="90" y="201.4875" style="stroke: #000000; stroke-width: 0.8"/>
      </g>
     </g>
     <g id="text_12">
      <!-- 40 -->
      <g transform="translate(66.991875 206.806406) scale(0.14 -0.14)">
       <use xlink:href="#OpenSans-Regular-34"/>
       <use xlink:href="#OpenSans-Regular-30" x="57.177734"/>
      </g>
     </g>
    </g>
    <g id="ytick_6">
     <g id="line2d_12">
      <g>
       <use xlink:href="#m0445782f90" x="90" y="163.265625" style="stroke: #000000; stroke-width: 0.8"/>
      </g>
     </g>
     <g id="text_13">
      <!-- 50 -->
      <g transform="translate(66.991875 168.584531) scale(0.14 -0.14)">
       <use xlink:href="#OpenSans-Regular-35"/>
       <use xlink:href="#OpenSans-Regular-30" x="57.177734"/>
      </g>
     </g>
    </g>
    <g id="ytick_7">
     <g id="line2d_13">
      <g>
       <use xlink:href="#m0445782f90" x="90" y="125.04375" style="stroke: #000000; stroke-width: 0.8"/>
      </g>
     </g>
     <g id="text_14">
      <!-- 60 -->
      <g transform="translate(66.991875 130.362656) scale(0.14 -0.14)">
       <defs>
        <path id="OpenSans-Regular-36" d="M 363 1953 
Q 363 2366 420 2759 
Q 478 3153 615 3492 
Q 753 3831 990 4087 
Q 1228 4344 1583 4489 
Q 1938 4634 2434 4634 
Q 2575 4634 2737 4620 
Q 2900 4606 3006 4575 
L 3006 4128 
Q 2891 4169 2742 4187 
Q 2594 4206 2444 4206 
Q 1863 4206 1530 3953 
Q 1197 3700 1050 3267 
Q 903 2834 881 2294 
L 916 2294 
Q 1013 2450 1163 2576 
Q 1313 2703 1527 2778 
Q 1741 2853 2025 2853 
Q 2425 2853 2723 2690 
Q 3022 2528 3186 2218 
Q 3350 1909 3350 1469 
Q 3350 997 3175 653 
Q 3000 309 2676 123 
Q 2353 -63 1906 -63 
Q 1572 -63 1290 65 
Q 1009 194 801 447 
Q 594 700 478 1076 
Q 363 1453 363 1953 
z
M 1900 375 
Q 2325 375 2581 647 
Q 2838 919 2838 1469 
Q 2838 1919 2609 2181 
Q 2381 2444 1922 2444 
Q 1609 2444 1378 2314 
Q 1147 2184 1019 1987 
Q 891 1791 891 1588 
Q 891 1381 952 1168 
Q 1013 956 1138 775 
Q 1263 594 1453 484 
Q 1644 375 1900 375 
z
" transform="scale(0.015625)"/>
       </defs>
       <use xlink:href="#OpenSans-Regular-36"/>
       <use xlink:href="#OpenSans-Regular-30" x="57.177734"/>
      </g>
     </g>
    </g>
    <g id="ytick_8">
     <g id="line2d_14">
      <g>
       <use xlink:href="#m0445782f90" x="90" y="86.821875" style="stroke: #000000; stroke-width: 0.8"/>
      </g>
     </g>
     <g id="text_15">
      <!-- 70 -->
      <g transform="translate(66.991875 92.140781) scale(0.14 -0.14)">
       <defs>
        <path id="OpenSans-Regular-37" d="M 906 0 
L 2781 4094 
L 291 4094 
L 291 4569 
L 3338 4569 
L 3338 4169 
L 1475 0 
L 906 0 
z
" transform="scale(0.015625)"/>
       </defs>
       <use xlink:href="#OpenSans-Regular-37"/>
       <use xlink:href="#OpenSans-Regular-30" x="57.177734"/>
      </g>
     </g>
    </g>
    <g id="ytick_9">
     <g id="line2d_15">
      <g>
       <use xlink:href="#m0445782f90" x="90" y="48.6" style="stroke: #000000; stroke-width: 0.8"/>
      </g>
     </g>
     <g id="text_16">
      <!-- 80 -->
      <g transform="translate(66.991875 53.918906) scale(0.14 -0.14)">
       <defs>
        <path id="OpenSans-Regular-38" d="M 1825 4634 
Q 2222 4634 2528 4509 
Q 2834 4384 3007 4142 
Q 3181 3900 3181 3547 
Q 3181 3269 3061 3061 
Q 2941 2853 2737 2698 
Q 2534 2544 2288 2422 
Q 2581 2288 2817 2119 
Q 3053 1950 3190 1722 
Q 3328 1494 3328 1181 
Q 3328 797 3142 517 
Q 2956 238 2622 87 
Q 2288 -63 1838 -63 
Q 1353 -63 1014 82 
Q 675 228 498 501 
Q 322 775 322 1159 
Q 322 1475 456 1708 
Q 591 1941 812 2109 
Q 1034 2278 1297 2394 
Q 1069 2519 880 2678 
Q 691 2838 580 3052 
Q 469 3266 469 3550 
Q 469 3897 645 4139 
Q 822 4381 1130 4507 
Q 1438 4634 1825 4634 
z
M 831 1156 
Q 831 806 1078 579 
Q 1325 353 1825 353 
Q 2300 353 2559 579 
Q 2819 806 2819 1175 
Q 2819 1403 2700 1576 
Q 2581 1750 2362 1887 
Q 2144 2025 1847 2138 
L 1734 2178 
Q 1447 2059 1245 1914 
Q 1044 1769 937 1584 
Q 831 1400 831 1156 
z
M 1819 4209 
Q 1450 4209 1215 4032 
Q 981 3856 981 3525 
Q 981 3288 1095 3123 
Q 1209 2959 1406 2842 
Q 1603 2725 1847 2625 
Q 2084 2725 2268 2845 
Q 2453 2966 2559 3131 
Q 2666 3297 2666 3528 
Q 2666 3859 2433 4034 
Q 2200 4209 1819 4209 
z
" transform="scale(0.015625)"/>
       </defs>
       <use xlink:href="#OpenSans-Regular-38"/>
       <use xlink:href="#OpenSans-Regular-30" x="57.177734"/>
      </g>
     </g>
    </g>
    <g id="text_17">
     <!-- Mechanical power, kW -->
     <g transform="translate(59.642812 274.621094) rotate(-90) scale(0.14 -0.14)">
      <defs>
       <path id="OpenSans-Regular-4d" d="M 2634 0 
L 1100 4044 
L 1075 4044 
Q 1088 3916 1097 3731 
Q 1106 3547 1112 3330 
Q 1119 3113 1119 2888 
L 1119 0 
L 625 0 
L 625 4569 
L 1413 4569 
L 2859 769 
L 2881 769 
L 4350 4569 
L 5131 4569 
L 5131 0 
L 4606 0 
L 4606 2925 
Q 4606 3128 4612 3333 
Q 4619 3538 4628 3720 
Q 4638 3903 4647 4038 
L 4622 4038 
L 3069 0 
L 2634 0 
z
" transform="scale(0.015625)"/>
       <path id="OpenSans-Regular-63" d="M 1919 -63 
Q 1456 -63 1103 128 
Q 750 319 553 709 
Q 356 1100 356 1694 
Q 356 2316 564 2711 
Q 772 3106 1137 3297 
Q 1503 3488 1969 3488 
Q 2225 3488 2464 3436 
Q 2703 3384 2856 3306 
L 2700 2872 
Q 2544 2934 2339 2984 
Q 2134 3034 1956 3034 
Q 1600 3034 1364 2881 
Q 1128 2728 1011 2431 
Q 894 2134 894 1700 
Q 894 1284 1008 990 
Q 1122 697 1348 542 
Q 1575 388 1916 388 
Q 2188 388 2406 445 
Q 2625 503 2803 581 
L 2803 119 
Q 2631 31 2420 -16 
Q 2209 -63 1919 -63 
z
" transform="scale(0.015625)"/>
       <path id="OpenSans-Regular-68" d="M 1066 4863 
L 1066 3409 
Q 1066 3284 1059 3157 
Q 1053 3031 1038 2925 
L 1072 2925 
Q 1178 3106 1342 3229 
Q 1506 3353 1715 3417 
Q 1925 3481 2159 3481 
Q 2572 3481 2848 3350 
Q 3125 3219 3264 2944 
Q 3403 2669 3403 2231 
L 3403 0 
L 2891 0 
L 2891 2197 
Q 2891 2625 2695 2837 
Q 2500 3050 2097 3050 
Q 1716 3050 1489 2904 
Q 1263 2759 1164 2478 
Q 1066 2197 1066 1791 
L 1066 0 
L 547 0 
L 547 4863 
L 1066 4863 
z
" transform="scale(0.015625)"/>
       <path id="OpenSans-Regular-61" d="M 1828 3481 
Q 2441 3481 2737 3206 
Q 3034 2931 3034 2328 
L 3034 0 
L 2656 0 
L 2556 506 
L 2531 506 
Q 2388 319 2231 192 
Q 2075 66 1870 1 
Q 1666 -63 1369 -63 
Q 1056 -63 814 46 
Q 572 156 433 378 
Q 294 600 294 941 
Q 294 1453 700 1728 
Q 1106 2003 1938 2028 
L 2528 2053 
L 2528 2263 
Q 2528 2706 2337 2884 
Q 2147 3063 1800 3063 
Q 1531 3063 1287 2984 
Q 1044 2906 825 2800 
L 666 3194 
Q 897 3313 1197 3397 
Q 1497 3481 1828 3481 
z
M 2522 1688 
L 2000 1666 
Q 1359 1641 1096 1456 
Q 834 1272 834 934 
Q 834 641 1012 500 
Q 1191 359 1484 359 
Q 1941 359 2231 612 
Q 2522 866 2522 1372 
L 2522 1688 
z
" transform="scale(0.015625)"/>
       <path id="OpenSans-Regular-6c" d="M 1069 0 
L 547 0 
L 547 4863 
L 1069 4863 
L 1069 0 
z
" transform="scale(0.015625)"/>
       <path id="OpenSans-Regular-6f" d="M 3500 1719 
Q 3500 1297 3390 965 
Q 3281 634 3075 406 
Q 2869 178 2576 57 
Q 2284 -63 1916 -63 
Q 1572 -63 1286 57 
Q 1000 178 792 406 
Q 584 634 470 965 
Q 356 1297 356 1719 
Q 356 2281 547 2676 
Q 738 3072 1092 3280 
Q 1447 3488 1938 3488 
Q 2406 3488 2757 3278 
Q 3109 3069 3304 2673 
Q 3500 2278 3500 1719 
z
M 894 1719 
Q 894 1306 1003 1003 
Q 1113 700 1341 534 
Q 1569 369 1928 369 
Q 2284 369 2514 534 
Q 2744 700 2853 1003 
Q 2963 1306 2963 1719 
Q 2963 2128 2853 2426 
Q 2744 2725 2516 2887 
Q 2288 3050 1925 3050 
Q 1391 3050 1142 2697 
Q 894 2344 894 1719 
z
" transform="scale(0.015625)"/>
       <path id="OpenSans-Regular-77" d="M 3334 6 
L 2725 2000 
Q 2684 2128 2648 2251 
Q 2613 2375 2583 2489 
Q 2553 2603 2529 2701 
Q 2506 2800 2491 2872 
L 2469 2872 
Q 2456 2800 2434 2701 
Q 2413 2603 2383 2487 
Q 2353 2372 2318 2245 
Q 2284 2119 2241 1991 
L 1603 6 
L 1019 6 
L 75 3431 
L 613 3431 
L 1106 1541 
Q 1156 1353 1201 1170 
Q 1247 988 1280 827 
Q 1313 666 1328 547 
L 1353 547 
Q 1372 625 1395 734 
Q 1419 844 1448 967 
Q 1478 1091 1512 1214 
Q 1547 1338 1581 1447 
L 2213 3431 
L 2772 3431 
L 3381 1450 
Q 3428 1300 3473 1137 
Q 3519 975 3556 823 
Q 3594 672 3609 553 
L 3634 553 
Q 3647 659 3681 815 
Q 3716 972 3761 1159 
Q 3806 1347 3856 1541 
L 4356 3431 
L 4884 3431 
L 3938 6 
L 3334 6 
z
" transform="scale(0.015625)"/>
       <path id="OpenSans-Regular-72" d="M 2103 3488 
Q 2206 3488 2318 3477 
Q 2431 3466 2519 3447 
L 2453 2966 
Q 2369 2988 2266 3000 
Q 2163 3013 2072 3013 
Q 1866 3013 1683 2930 
Q 1500 2847 1362 2692 
Q 1225 2538 1147 2320 
Q 1069 2103 1069 1838 
L 1069 0 
L 547 0 
L 547 3425 
L 978 3425 
L 1034 2794 
L 1056 2794 
Q 1163 2984 1313 3142 
Q 1463 3300 1661 3394 
Q 1859 3488 2103 3488 
z
" transform="scale(0.015625)"/>
       <path id="OpenSans-Regular-6b" d="M 1063 4863 
L 1063 2338 
Q 1063 2213 1053 2033 
Q 1044 1853 1038 1716 
L 1059 1716 
Q 1125 1797 1251 1956 
Q 1378 2116 1466 2213 
L 2603 3425 
L 3213 3425 
L 1834 1963 
L 3313 0 
L 2688 0 
L 1478 1622 
L 1063 1241 
L 1063 0 
L 547 0 
L 547 4863 
L 1063 4863 
z
" transform="scale(0.015625)"/>
      </defs>
      <use xlink:href="#OpenSans-Regular-4d"/>
      <use xlink:href="#OpenSans-Regular-65" x="89.941406"/>
      <use xlink:href="#OpenSans-Regular-63" x="146.09375"/>
      <use xlink:href="#OpenSans-Regular-68" x="193.994141"/>
      <use xlink:href="#OpenSans-Regular-61" x="255.322266"/>
      <use xlink:href="#OpenSans-Regular-6e" x="310.888672"/>
      <use xlink:href="#OpenSans-Regular-69" x="372.216797"/>
      <use xlink:href="#OpenSans-Regular-63" x="397.460938"/>
      <use xlink:href="#OpenSans-Regular-61" x="445.361328"/>
      <use xlink:href="#OpenSans-Regular-6c" x="500.927734"/>
      <use xlink:href="#OpenSans-Regular-20" x="526.171875"/>
      <use xlink:href="#OpenSans-Regular-70" x="552.148438"/>
      <use xlink:href="#OpenSans-Regular-6f" x="613.330078"/>
      <use xlink:href="#OpenSans-Regular-77" x="673.486328"/>
      <use xlink:href="#OpenSans-Regular-65" x="750.976562"/>
      <use xlink:href="#OpenSans-Regular-72" x="807.128906"/>
      <use xlink:href="#OpenSans-Regular-2c" x="847.998047"/>
      <use xlink:href="#OpenSans-Regular-20" x="873.876953"/>
      <use xlink:href="#OpenSans-Regular-6b" x="899.853516"/>
      <use xlink:href="#OpenSans-Regular-57" x="952.392578"/>
     </g>
    </g>
   </g>
   <g id="LineCollection_1">
    <path d="M 355.093594 354.375 
L 355.093594 -1 
" clip-path="url(#p7fab000c1e)" style="fill: none; stroke: #000000; stroke-width: 1.5"/>
   </g>
   <g id="LineCollection_2">
    <path d="M 475.891875 354.375 
L 475.891875 -1 
" clip-path="url(#p7fab000c1e)" style="fill: none; stroke: #ff0000; stroke-width: 1.5"/>
   </g>
   <g id="line2d_16">
    <path d="M 101.16 354.366849 
L 112.32 354.309793 
L 123.48 354.154927 
L 134.64 353.853345 
L 145.8 353.356143 
L 156.96 352.614415 
L 168.12 351.579257 
L 179.28 350.201763 
L 190.44 348.433027 
L 201.6 346.224146 
L 212.76 343.526213 
L 223.92 340.290323 
L 235.08 336.467573 
L 246.24 332.009055 
L 257.4 326.865866 
L 268.56 320.9891 
L 279.72 314.329852 
L 290.88 306.839217 
L 302.04 298.468289 
L 313.2 289.168164 
L 324.36 278.889937 
L 335.52 267.584702 
L 346.68 255.203554 
L 357.84 241.697588 
L 369 227.017899 
L 380.16 211.115582 
L 391.32 193.941732 
L 402.48 175.447443 
L 413.64 155.58381 
L 424.8 134.301929 
L 435.96 111.552895 
L 447.12 87.287801 
L 458.28 61.457743 
L 469.44 34.013816 
L 480.6 4.907115 
L 482.739094 -1 
" clip-path="url(#p7fab000c1e)" style="fill: none; stroke-dasharray: 1.5,2.475; stroke-dashoffset: 0; stroke: #ff0000; stroke-width: 1.5"/>
   </g>
   <g id="line2d_17">
    <path d="M 101.16 354.369989 
L 112.32 354.334908 
L 123.48 354.23969 
L 134.64 354.054265 
L 145.8 353.748565 
L 156.96 353.29252 
L 168.12 352.656061 
L 179.28 351.809121 
L 190.44 350.721629 
L 201.6 349.363517 
L 212.76 347.704716 
L 223.92 345.715157 
L 235.08 343.364772 
L 246.24 340.623491 
L 257.4 337.461245 
L 268.56 333.847966 
L 279.72 329.753584 
L 290.88 325.148031 
L 302.04 320.001238 
L 313.2 314.283136 
L 324.36 307.963656 
L 335.52 301.01273 
L 346.68 293.400287 
L 357.84 285.139027 
L 369 277.176862 
L 380.16 269.862819 
L 391.32 263.140449 
L 402.48 256.961841 
L 413.64 251.287005 
L 424.8 246.085238 
L 435.96 241.345929 
L 447.12 237.041708 
L 458.28 233.144645 
L 469.44 229.629562 
L 480.6 236.098239 
L 491.76 253.859716 
L 502.92 268.988594 
L 514.08 281.907292 
L 525.24 293.011871 
L 536.4 302.611265 
L 547.56 310.948559 
L 558.72 318.216331 
L 569.88 324.567838 
L 581.04 330.125219 
L 592.2 334.986862 
L 603.36 339.225677 
L 614.52 342.902591 
L 625.68 346.060146 
L 636.84 348.725652 
L 648 350.910297 
" clip-path="url(#p7fab000c1e)" style="fill: none; stroke: #0000ff; stroke-width: 1.5; stroke-linecap: square"/>
   </g>
   <g id="line2d_18">
    <path d="M 101.16 354.36731 
L 112.32 354.313477 
L 123.48 354.167359 
L 134.64 353.882814 
L 145.8 353.4137 
L 156.96 352.713873 
L 168.12 351.737192 
L 179.28 350.437513 
L 190.44 348.768696 
L 201.6 346.684597 
L 212.76 344.139073 
L 223.92 341.085983 
L 235.08 337.479184 
L 246.24 333.272533 
L 257.4 328.419888 
L 268.56 322.875108 
L 279.72 316.592048 
L 290.88 309.524567 
L 302.04 301.626523 
L 313.2 292.851773 
L 324.36 283.154174 
L 335.52 272.487584 
L 346.68 260.805862 
L 357.84 246.95207 
L 369 229.285153 
L 380.16 211.618236 
L 391.32 193.951319 
L 402.48 176.284402 
L 413.64 158.617485 
L 424.8 140.950568 
L 435.96 123.283651 
L 447.12 105.616734 
L 458.28 87.949817 
L 469.44 70.282899 
L 480.6 60.071175 
L 491.76 60.071175 
L 502.92 60.071175 
L 514.08 60.071175 
L 525.24 60.071175 
L 536.4 60.071175 
L 547.56 60.071175 
L 558.72 60.071175 
L 569.88 60.071175 
L 581.04 60.071175 
L 592.2 60.071175 
L 603.36 60.071175 
L 614.52 60.071175 
L 625.68 60.071175 
L 636.84 60.071175 
L 648 60.071175 
" clip-path="url(#p7fab000c1e)" style="fill: none; stroke-dasharray: 5.55,2.4; stroke-dashoffset: 0; stroke: #008000; stroke-width: 1.5"/>
   </g>
   <g id="line2d_19">
    <path d="M 101.16 354.370894 
L 112.32 354.342155 
L 123.48 354.264149 
L 134.64 354.112242 
L 145.8 353.861801 
L 156.96 353.488191 
L 168.12 352.966781 
L 179.28 352.272935 
L 190.44 351.382021 
L 201.6 350.269404 
L 212.76 348.910452 
L 223.92 347.280531 
L 235.08 345.355006 
L 246.24 343.109245 
L 257.4 340.518614 
L 268.56 337.55848 
L 279.72 334.204208 
L 290.88 330.431166 
L 302.04 326.214719 
L 313.2 321.530234 
L 324.36 316.353078 
L 335.52 310.658617 
L 346.68 304.422217 
L 357.84 297.760885 
L 369 291.062855 
L 380.16 283.975899 
L 391.32 277.601637 
L 402.48 271.39733 
L 413.64 265.345786 
L 424.8 261.01107 
L 435.96 258.266613 
L 447.12 255.434083 
L 458.28 252.515292 
L 469.44 249.511829 
L 480.6 246.425096 
L 491.76 248.207147 
L 502.92 256.339269 
L 514.08 263.656644 
L 525.24 270.329606 
L 536.4 276.497525 
L 547.56 282.27658 
L 558.72 287.765622 
L 569.88 293.050779 
L 581.04 298.209202 
L 592.2 303.979523 
L 603.36 308.881012 
L 614.52 313.915411 
L 625.68 319.149385 
L 636.84 324.659609 
L 648 330.5396 
" clip-path="url(#p7fab000c1e)" style="fill: none; stroke-dasharray: 5.55,2.4; stroke-dashoffset: 0; stroke: #ff0000; stroke-width: 1.5"/>
   </g>
   <g id="patch_3">
    <path d="M 90 354.375 
L 90 48.6 
" style="fill: none; stroke: #000000; stroke-width: 0.8; stroke-linejoin: miter; stroke-linecap: square"/>
   </g>
   <g id="patch_4">
    <path d="M 648 354.375 
L 648 48.6 
" style="fill: none; stroke: #000000; stroke-width: 0.8; stroke-linejoin: miter; stroke-linecap: square"/>
   </g>
   <g id="patch_5">
    <path d="M 90 354.375 
L 648 354.375 
" style="fill: none; stroke: #000000; stroke-width: 0.8; stroke-linejoin: miter; stroke-linecap: square"/>
   </g>
   <g id="patch_6">
    <path d="M 90 48.6 
L 648 48.6 
" style="fill: none; stroke: #000000; stroke-width: 0.8; stroke-linejoin: miter; stroke-linecap: square"/>
   </g>
   <g id="legend_1">
    <g id="line2d_20">
     <path d="M 102.6 66.94 
L 116.6 66.94 
L 130.6 66.94 
" style="fill: none; stroke-dasharray: 1.5,2.475; stroke-dashoffset: 0; stroke: #ff0000; stroke-width: 1.5"/>
    </g>
    <g id="text_18">
     <!-- $\zeta_{\mathrm{opt}}$ -->
     <g transform="translate(141.8 71.84) scale(0.14 -0.14)">
      <defs>
       <path id="DejaVuSans-Oblique-3b6" d="M 1966 397 
Q 2378 394 2578 159 
Q 2794 -88 2722 -463 
Q 2650 -822 2372 -1072 
Q 2069 -1344 1559 -1344 
Q 1606 -1109 1650 -872 
Q 1863 -888 2022 -750 
Q 2144 -641 2166 -525 
Q 2197 -359 2125 -222 
Q 2050 -91 1872 -91 
Q -22 -91 316 1669 
Q 616 3206 2609 4284 
L 947 4284 
L 1059 4863 
L 3778 4863 
L 3666 4284 
Q 1181 3147 894 1669 
Q 647 397 1966 397 
z
" transform="scale(0.015625)"/>
       <path id="DejaVuSans-6f" d="M 1959 3097 
Q 1497 3097 1228 2736 
Q 959 2375 959 1747 
Q 959 1119 1226 758 
Q 1494 397 1959 397 
Q 2419 397 2687 759 
Q 2956 1122 2956 1747 
Q 2956 2369 2687 2733 
Q 2419 3097 1959 3097 
z
M 1959 3584 
Q 2709 3584 3137 3096 
Q 3566 2609 3566 1747 
Q 3566 888 3137 398 
Q 2709 -91 1959 -91 
Q 1206 -91 779 398 
Q 353 888 353 1747 
Q 353 2609 779 3096 
Q 1206 3584 1959 3584 
z
" transform="scale(0.015625)"/>
       <path id="DejaVuSans-70" d="M 1159 525 
L 1159 -1331 
L 581 -1331 
L 581 3500 
L 1159 3500 
L 1159 2969 
Q 1341 3281 1617 3432 
Q 1894 3584 2278 3584 
Q 2916 3584 3314 3078 
Q 3713 2572 3713 1747 
Q 3713 922 3314 415 
Q 2916 -91 2278 -91 
Q 1894 -91 1617 61 
Q 1341 213 1159 525 
z
M 3116 1747 
Q 3116 2381 2855 2742 
Q 2594 3103 2138 3103 
Q 1681 3103 1420 2742 
Q 1159 2381 1159 1747 
Q 1159 1113 1420 752 
Q 1681 391 2138 391 
Q 2594 391 2855 752 
Q 3116 1113 3116 1747 
z
" transform="scale(0.015625)"/>
       <path id="DejaVuSans-74" d="M 1172 4494 
L 1172 3500 
L 2356 3500 
L 2356 3053 
L 1172 3053 
L 1172 1153 
Q 1172 725 1289 603 
Q 1406 481 1766 481 
L 2356 481 
L 2356 0 
L 1766 0 
Q 1100 0 847 248 
Q 594 497 594 1153 
L 594 3053 
L 172 3053 
L 172 3500 
L 594 3500 
L 594 4494 
L 1172 4494 
z
" transform="scale(0.015625)"/>
      </defs>
      <use xlink:href="#DejaVuSans-Oblique-3b6" transform="translate(0 0.015625)"/>
      <use xlink:href="#DejaVuSans-6f" transform="translate(54.394531 -16.390625) scale(0.7)"/>
      <use xlink:href="#DejaVuSans-70" transform="translate(97.22168 -16.390625) scale(0.7)"/>
      <use xlink:href="#DejaVuSans-74" transform="translate(141.655273 -16.390625) scale(0.7)"/>
     </g>
    </g>
    <g id="line2d_21">
     <path d="M 102.6 88.917813 
L 116.6 88.917813 
L 130.6 88.917813 
" style="fill: none; stroke: #0000ff; stroke-width: 1.5; stroke-linecap: square"/>
    </g>
    <g id="text_19">
     <!-- $P_{\mathrm{c}}$ -->
     <g transform="translate(141.8 93.817813) scale(0.14 -0.14)">
      <defs>
       <path id="DejaVuSans-Oblique-50" d="M 1081 4666 
L 2541 4666 
Q 3178 4666 3512 4369 
Q 3847 4072 3847 3500 
Q 3847 2731 3353 2303 
Q 2859 1875 1966 1875 
L 1172 1875 
L 806 0 
L 172 0 
L 1081 4666 
z
M 1613 4147 
L 1275 2394 
L 2069 2394 
Q 2606 2394 2893 2669 
Q 3181 2944 3181 3456 
Q 3181 3784 2986 3965 
Q 2791 4147 2438 4147 
L 1613 4147 
z
" transform="scale(0.015625)"/>
       <path id="DejaVuSans-63" d="M 3122 3366 
L 3122 2828 
Q 2878 2963 2633 3030 
Q 2388 3097 2138 3097 
Q 1578 3097 1268 2742 
Q 959 2388 959 1747 
Q 959 1106 1268 751 
Q 1578 397 2138 397 
Q 2388 397 2633 464 
Q 2878 531 3122 666 
L 3122 134 
Q 2881 22 2623 -34 
Q 2366 -91 2075 -91 
Q 1284 -91 818 406 
Q 353 903 353 1747 
Q 353 2603 823 3093 
Q 1294 3584 2113 3584 
Q 2378 3584 2631 3529 
Q 2884 3475 3122 3366 
z
" transform="scale(0.015625)"/>
      </defs>
      <use xlink:href="#DejaVuSans-Oblique-50" transform="translate(0 0.09375)"/>
      <use xlink:href="#DejaVuSans-63" transform="translate(60.302734 -16.3125) scale(0.7)"/>
     </g>
    </g>
    <g id="line2d_22">
     <path d="M 102.6 109.904688 
L 116.6 109.904688 
L 130.6 109.904688 
" style="fill: none; stroke-dasharray: 5.55,2.4; stroke-dashoffset: 0; stroke: #008000; stroke-width: 1.5"/>
    </g>
    <g id="text_20">
     <!-- $P_{\mathrm{o}}$ -->
     <g transform="translate(141.8 114.804688) scale(0.14 -0.14)">
      <use xlink:href="#DejaVuSans-Oblique-50" transform="translate(0 0.09375)"/>
      <use xlink:href="#DejaVuSans-6f" transform="translate(60.302734 -16.3125) scale(0.7)"/>
     </g>
    </g>
    <g id="line2d_23">
     <path d="M 102.6 130.891563 
L 116.6 130.891563 
L 130.6 130.891563 
" style="fill: none; stroke-dasharray: 5.55,2.4; stroke-dashoffset: 0; stroke: #ff0000; stroke-width: 1.5"/>
    </g>
    <g id="text_21">
     <!-- $-P_{\mathrm{i}}$ -->
     <g transform="translate(141.8 135.791563) scale(0.14 -0.14)">
      <defs>
       <path id="DejaVuSans-2212" d="M 678 2272 
L 4684 2272 
L 4684 1741 
L 678 1741 
L 678 2272 
z
" transform="scale(0.015625)"/>
       <path id="DejaVuSans-69" d="M 603 3500 
L 1178 3500 
L 1178 0 
L 603 0 
L 603 3500 
z
M 603 4863 
L 1178 4863 
L 1178 4134 
L 603 4134 
L 603 4863 
z
" transform="scale(0.015625)"/>
      </defs>
      <use xlink:href="#DejaVuSans-2212" transform="translate(0 0.09375)"/>
      <use xlink:href="#DejaVuSans-Oblique-50" transform="translate(83.789062 0.09375)"/>
      <use xlink:href="#DejaVuSans-69" transform="translate(144.091797 -16.3125) scale(0.7)"/>
     </g>
    </g>
   </g>
  </g>
 </g>
 <defs>
  <clipPath id="p7fab000c1e">
   <rect x="90" y="48.6" width="558" height="305.775"/>
  </clipPath>
 </defs>
</svg>
